<?xml version="1.0" encoding="UTF-8" standalone="no"?>
<!-- Generator: Adobe Illustrator 12.0.0, SVG Export Plug-In . SVG Version: 6.00 Build 51448)  -->
<svg
   xmlns:dc="http://purl.org/dc/elements/1.1/"
   xmlns:cc="http://creativecommons.org/ns#"
   xmlns:rdf="http://www.w3.org/1999/02/22-rdf-syntax-ns#"
   xmlns:svg="http://www.w3.org/2000/svg"
   xmlns="http://www.w3.org/2000/svg"
   xmlns:sodipodi="http://sodipodi.sourceforge.net/DTD/sodipodi-0.dtd"
   xmlns:inkscape="http://www.inkscape.org/namespaces/inkscape"
   version="1.0"
   id="Layer_1"
   width="135.36899"
   height="227.70528"
   viewBox="0 0 354.346 659.055"
   overflow="visible"
   enable-background="new 0 0 354.346 659.055"
   xml:space="preserve"
   sodipodi:version="0.32"
   inkscape:version="0.46"
   sodipodi:docname="Csp4j_Logo.svg"
   inkscape:output_extension="org.inkscape.output.svg.inkscape"
   style="overflow:visible"><metadata
   id="metadata2567"><rdf:RDF><cc:Work
       rdf:about=""><dc:format>image/svg+xml</dc:format><dc:type
         rdf:resource="http://purl.org/dc/dcmitype/StillImage" /></cc:Work></rdf:RDF></metadata><defs
   id="defs2565"><inkscape:perspective
     sodipodi:type="inkscape:persp3d"
     inkscape:vp_x="0 : 329.5275 : 1"
     inkscape:vp_y="0 : 1000 : 0"
     inkscape:vp_z="354.34601 : 329.5275 : 1"
     inkscape:persp3d-origin="177.173 : 219.685 : 1"
     id="perspective2569" /></defs><sodipodi:namedview
   inkscape:window-height="949"
   inkscape:window-width="1280"
   inkscape:pageshadow="2"
   inkscape:pageopacity="0.0"
   guidetolerance="10.0"
   gridtolerance="10.0"
   objecttolerance="10.0"
   borderopacity="1.0"
   bordercolor="#666666"
   pagecolor="#ffffff"
   id="base"
   showgrid="false"
   inkscape:zoom="10.054869"
   inkscape:cx="76.453896"
   inkscape:cy="147.94292"
   inkscape:window-x="0"
   inkscape:window-y="25"
   inkscape:current-layer="g2536" />
<g
   id="g2536"
   transform="translate(-24.132672,14.841194)">
	<path
   clip-rule="evenodd"
   d="M 117.151,349.592 C 117.151,349.592 99.886,359.641 129.452,363.032 C 165.276,367.122 183.582,366.533 223.048,359.073 C 223.048,359.073 233.445,365.577 247.94,371.21 C 159.439,409.127 47.644,369.013 117.151,349.592 L 117.151,349.592 z"
   id="path2538"
   style="fill:#0074bd;fill-rule:evenodd" />
	<path
   clip-rule="evenodd"
   d="M 106.331,300.104 C 106.331,300.104 86.964,314.443 116.552,317.501 C 154.823,321.452 185.035,321.776 237.344,311.709 C 237.344,311.709 244.562,319.041 255.929,323.048 C 148.943,354.342 29.782,325.51 106.331,300.104 L 106.331,300.104 z"
   id="path2540"
   style="fill:#0074bd;fill-rule:evenodd" />
	
	<path
   clip-rule="evenodd"
   d="M 314.542,386.202 C 314.542,386.202 327.323,396.738 300.465,404.886 C 249.394,420.355 87.861,425.021 42.995,405.505 C 26.878,398.485 57.116,388.755 66.63,386.7 C 76.55,384.554 82.214,384.946 82.214,384.946 C 64.277,372.315 -33.721,409.753 32.442,420.49 C 212.871,449.736 361.337,407.317 314.542,386.202 L 314.542,386.202 z"
   id="path2544"
   style="fill:#0074bd;fill-rule:evenodd" />
	<path
   clip-rule="evenodd"
   d="M 125.46,248.822 C 125.46,248.822 43.305,268.341 96.368,275.435 C 118.78,278.434 163.431,277.744 205.053,274.252 C 239.059,271.398 273.186,265.294 273.186,265.294 C 273.186,265.294 261.204,270.434 252.529,276.354 C 169.085,298.301 7.917,288.08 54.322,265.642 C 93.549,246.665 125.46,248.822 125.46,248.822 L 125.46,248.822 z"
   id="path2546"
   style="fill:#0074bd;fill-rule:evenodd" />
	<path
   clip-rule="evenodd"
   d="M 272.846,331.198 C 357.664,287.135 318.443,244.786 291.069,250.49 C 284.375,251.887 281.372,253.097 281.372,253.097 C 281.372,253.097 283.866,249.19 288.615,247.509 C 342.77,228.479 384.409,303.655 271.151,333.428 C 271.15,333.428 272.453,332.248 272.846,331.198 L 272.846,331.198 z"
   id="path2548"
   style="fill:#0074bd;fill-rule:evenodd" />
	
	<path
   clip-rule="evenodd"
   d="M 133.799,450.637 C 215.196,455.841 340.225,447.741 343.184,409.222 C 343.184,409.222 337.496,423.824 275.908,435.41 C 206.427,448.491 120.711,446.968 69.892,438.577 C 69.892,438.577 80.303,447.194 133.799,450.637 L 133.799,450.637 z"
   id="path2552"
   style="fill:#0074bd;fill-rule:evenodd" />
	
	
	
	
	
<text
   xml:space="preserve"
   style="font-size:120px;font-style:normal;font-variant:normal;font-weight:normal;font-stretch:normal;fill:#ff0000;fill-opacity:1;stroke:none;stroke-width:1px;stroke-linecap:butt;stroke-linejoin:miter;stroke-opacity:1;font-family:Sans;-inkscape-font-specification:Sans"
   x="-1.3341246"
   y="564.33252"
   id="text2571"><tspan
     sodipodi:role="line"
     id="tspan2573"
     x="-1.3341246"
     y="564.33252">CSP4J</tspan></text>

<path
   sodipodi:type="arc"
   style="fill:none;stroke:#ff0000;stroke-width:3;stroke-miterlimit:4;stroke-dasharray:none;stroke-opacity:1"
   id="path2579"
   sodipodi:cx="232.13678"
   sodipodi:cy="10.672956"
   sodipodi:rx="17.343554"
   sodipodi:ry="17.343554"
   d="M 249.48033,10.672956 A 17.343554,17.343554 0 1 1 214.79323,10.672956 A 17.343554,17.343554 0 1 1 249.48033,10.672956 z"
   transform="translate(-6.6705971,-6.6705972)" /><path
   sodipodi:type="arc"
   style="fill:none;stroke:#ff0000;stroke-width:3;stroke-miterlimit:4;stroke-dasharray:none;stroke-opacity:1"
   id="path3351"
   sodipodi:cx="232.13678"
   sodipodi:cy="10.672956"
   sodipodi:rx="17.343554"
   sodipodi:ry="17.343554"
   d="M 249.48033,10.672956 A 17.343554,17.343554 0 1 1 214.79323,10.672956 A 17.343554,17.343554 0 1 1 249.48033,10.672956 z"
   transform="translate(-6.6706012,40.023584)" /><path
   sodipodi:type="arc"
   style="fill:none;stroke:#ff0000;stroke-width:3;stroke-miterlimit:4;stroke-dasharray:none;stroke-opacity:1"
   id="path3353"
   sodipodi:cx="232.13678"
   sodipodi:cy="10.672956"
   sodipodi:rx="17.343554"
   sodipodi:ry="17.343554"
   d="M 249.48033,10.672956 A 17.343554,17.343554 0 1 1 214.79323,10.672956 A 17.343554,17.343554 0 1 1 249.48033,10.672956 z"
   transform="translate(-102.7272,150.7555)" /><path
   sodipodi:type="arc"
   style="fill:none;stroke:#ff0000;stroke-width:3;stroke-miterlimit:4;stroke-dasharray:none;stroke-opacity:1"
   id="path3355"
   sodipodi:cx="232.13678"
   sodipodi:cy="10.672956"
   sodipodi:rx="17.343554"
   sodipodi:ry="17.343554"
   d="M 249.48033,10.672956 A 17.343554,17.343554 0 1 1 214.79323,10.672956 A 17.343554,17.343554 0 1 1 249.48033,10.672956 z"
   transform="translate(-78.713055,224.13206)" /><path
   sodipodi:type="arc"
   style="fill:none;stroke:#ff0000;stroke-width:3;stroke-miterlimit:4;stroke-dasharray:none;stroke-opacity:1"
   id="path3357"
   sodipodi:cx="232.13678"
   sodipodi:cy="10.672956"
   sodipodi:rx="17.343554"
   sodipodi:ry="17.343554"
   d="M 249.48033,10.672956 A 17.343554,17.343554 0 1 1 214.79323,10.672956 A 17.343554,17.343554 0 1 1 249.48033,10.672956 z"
   transform="translate(37.35534,89.386006)" /><path
   sodipodi:type="arc"
   style="fill:none;stroke:#ff0000;stroke-width:3;stroke-miterlimit:4;stroke-dasharray:none;stroke-opacity:1"
   id="path3359"
   sodipodi:cx="232.13678"
   sodipodi:cy="10.672956"
   sodipodi:rx="17.343554"
   sodipodi:ry="17.343554"
   d="M 249.48033,10.672956 A 17.343554,17.343554 0 1 1 214.79323,10.672956 A 17.343554,17.343554 0 1 1 249.48033,10.672956 z"
   transform="translate(-37.355349,138.74842)" /><path
   sodipodi:type="arc"
   style="fill:none;stroke:#ff0000;stroke-width:3;stroke-miterlimit:4;stroke-dasharray:none;stroke-opacity:1"
   id="path3361"
   sodipodi:cx="232.13678"
   sodipodi:cy="10.672956"
   sodipodi:rx="17.343554"
   sodipodi:ry="17.343554"
   d="M 249.48033,10.672956 A 17.343554,17.343554 0 1 1 214.79323,10.672956 A 17.343554,17.343554 0 1 1 249.48033,10.672956 z"
   transform="translate(-30.684752,189.44496)" /><path
   sodipodi:type="arc"
   style="fill:none;stroke:#ff0000;stroke-width:3;stroke-miterlimit:4;stroke-dasharray:none;stroke-opacity:1"
   id="path3363"
   sodipodi:cx="232.13678"
   sodipodi:cy="10.672956"
   sodipodi:rx="17.343554"
   sodipodi:ry="17.343554"
   d="M 249.48033,10.672956 A 17.343554,17.343554 0 1 1 214.79323,10.672956 A 17.343554,17.343554 0 1 1 249.48033,10.672956 z"
   transform="translate(-31.050159,241.73588)" /><path
   sodipodi:type="arc"
   style="fill:none;stroke:#ff0000;stroke-width:3;stroke-miterlimit:4;stroke-dasharray:none;stroke-opacity:1"
   id="path3365"
   sodipodi:cx="232.13678"
   sodipodi:cy="10.672956"
   sodipodi:rx="17.343554"
   sodipodi:ry="17.343554"
   d="M 249.48033,10.672956 A 17.343554,17.343554 0 1 1 214.79323,10.672956 A 17.343554,17.343554 0 1 1 249.48033,10.672956 z"
   transform="translate(-61.369501,86.717763)" /><path
   style="fill:none;fill-rule:evenodd;stroke:#fe0000;stroke-width:3;stroke-linecap:butt;stroke-linejoin:miter;stroke-miterlimit:4;stroke-dasharray:none;stroke-opacity:1"
   d="M 224.13206,20.011791 L 224.13206,32.018866 L 224.13206,32.018866"
   id="path3367" /><path
   style="fill:none;fill-rule:evenodd;stroke:#ff0000;stroke-width:3;stroke-linecap:butt;stroke-linejoin:miter;stroke-miterlimit:4;stroke-dasharray:none;stroke-opacity:1"
   d="M 210.79086,61.369494 L 182.77436,85.383644"
   id="path3369" /><path
   style="fill:none;fill-rule:evenodd;stroke:#ff0000;stroke-width:3;stroke-linecap:butt;stroke-linejoin:miter;stroke-miterlimit:4;stroke-dasharray:none;stroke-opacity:1"
   d="M 160.09433,110.73191 L 138.74841,146.75314"
   id="path3373" /><path
   style="fill:none;fill-rule:evenodd;stroke:#ff0000;stroke-width:3;stroke-linecap:butt;stroke-linejoin:miter;stroke-miterlimit:4;stroke-dasharray:none;stroke-opacity:1"
   d="M 132.07782,177.43788 L 148.08725,218.79559"
   id="path3377" /><path
   style="fill:none;fill-rule:evenodd;stroke:#ff0000;stroke-width:3;stroke-linecap:butt;stroke-linejoin:miter;stroke-miterlimit:4;stroke-dasharray:none;stroke-opacity:1"
   d="M 254.81681,109.39779 L 208.12263,137.4143"
   id="path3381" /><path
   style="fill:none;fill-rule:evenodd;stroke:#ff0000;stroke-width:3;stroke-linecap:butt;stroke-linejoin:miter;stroke-miterlimit:4;stroke-dasharray:none;stroke-opacity:1"
   d="M 196.11555,166.76493 L 199.3595,182.59166"
   id="path3383"
   sodipodi:nodetypes="cc" /><path
   style="fill:none;fill-rule:evenodd;stroke:#ff0000;stroke-width:3;stroke-linecap:butt;stroke-linejoin:miter;stroke-miterlimit:4;stroke-dasharray:none;stroke-opacity:1"
   d="M 200.11791,216.12735 L 201.19177,235.06528"
   id="path3385"
   sodipodi:nodetypes="cc" /><path
   style="fill:none;fill-rule:evenodd;stroke:#ff0000;stroke-width:3;stroke-linecap:butt;stroke-linejoin:miter;stroke-miterlimit:4;stroke-dasharray:none;stroke-opacity:1"
   d="M 221.46382,66.705972 L 197.44967,132.07782"
   id="path3387" /><path
   style="fill:none;fill-rule:evenodd;stroke:#ff0000;stroke-width:3;stroke-linecap:butt;stroke-linejoin:miter;stroke-miterlimit:4;stroke-dasharray:none;stroke-opacity:1"
   d="M 266.82388,81.381285 L 236.13913,17.343553"
   id="path3389"
   sodipodi:nodetypes="cc" /><path
   style="fill:none;fill-rule:evenodd;stroke:#ff0000;stroke-width:3;stroke-linecap:butt;stroke-linejoin:miter;stroke-miterlimit:4;stroke-dasharray:none;stroke-opacity:1"
   d="M 168.09904,242.80974 L 184.03093,248.40647"
   id="path3391"
   sodipodi:nodetypes="cc" /><text
   xml:space="preserve"
   style="font-size:40px;font-style:normal;font-weight:normal;fill:#ff0000;fill-opacity:1;stroke:none;stroke-width:1px;stroke-linecap:butt;stroke-linejoin:miter;stroke-opacity:1;font-family:Bitstream Vera Sans"
   x="329.52747"
   y="480.28299"
   id="text3393"><tspan
     sodipodi:role="line"
     id="tspan3395"
     x="329.52747"
     y="480.28299">©</tspan></text>

</g>
</svg>